<svg width="30" height="30" viewBox="0 0 30 30" fill="none" xmlns="http://www.w3.org/2000/svg">
<rect x="0.5" y="0.5" width="29" height="29" rx="5.5" fill="#EBF0FF"/>
<rect x="0.5" y="0.5" width="29" height="29" rx="5.5" stroke="#3366FF"/>
<g clip-path="url(#clip0_1628_5512)">
<path d="M18.75 10.5H22.5V12H21V21.75C21 21.9489 20.921 22.1397 20.7803 22.2803C20.6397 22.421 20.4489 22.5 20.25 22.5H9.75C9.55109 22.5 9.36032 22.421 9.21967 22.2803C9.07902 22.1397 9 21.9489 9 21.75V12H7.5V10.5H11.25V8.25C11.25 8.05109 11.329 7.86032 11.4697 7.71967C11.6103 7.57902 11.8011 7.5 12 7.5H18C18.1989 7.5 18.3897 7.57902 18.5303 7.71967C18.671 7.86032 18.75 8.05109 18.75 8.25V10.5ZM12.75 14.25V18.75H14.25V14.25H12.75ZM15.75 14.25V18.75H17.25V14.25H15.75ZM12.75 9V10.5H17.25V9H12.75Z" fill="#668CFF"/>
</g>
<defs>
<clipPath id="clip0_1628_5512">
<rect width="18" height="18" fill="white" transform="translate(6 6)"/>
</clipPath>
</defs>
</svg>
