<svg width="30" height="30" viewBox="0 0 30 30" fill="none" xmlns="http://www.w3.org/2000/svg">
<rect x="0.5" y="0.5" width="29" height="29" rx="5.5" fill="#EBF0FF"/>
<rect x="0.5" y="0.5" width="29" height="29" rx="5.5" stroke="#3366FF"/>
<g clip-path="url(#clip0_1628_5511)">
<path d="M12.9323 20.2501H21.75V21.7501H8.25V18.5678L15.675 11.1428L18.8565 14.3258L12.9315 20.2501H12.9323ZM16.7347 10.0831L18.3263 8.49156C18.4669 8.35096 18.6576 8.27197 18.8565 8.27197C19.0554 8.27197 19.2461 8.35096 19.3868 8.49156L21.5085 10.6133C21.6491 10.754 21.7281 10.9447 21.7281 11.1436C21.7281 11.3424 21.6491 11.5332 21.5085 11.6738L19.917 13.2646L16.7355 10.0831H16.7347Z" fill="#668CFF"/>
</g>
<defs>
<clipPath id="clip0_1628_5511">
<rect width="18" height="18" fill="white" transform="translate(6 6)"/>
</clipPath>
</defs>
</svg>
