<svg width="40" height="40" viewBox="0 0 40 40" fill="none" xmlns="http://www.w3.org/2000/svg">
<rect x="0.5" y="0.5" width="39" height="39" rx="5.5" stroke="#3366FF"/>
<g clip-path="url(#clip0_1701_2808)">
<path d="M26 23.75H27.5V25.25H12.5V23.75H14V18.5C14 16.9087 14.6321 15.3826 15.7574 14.2574C16.8826 13.1321 18.4087 12.5 20 12.5C21.5913 12.5 23.1174 13.1321 24.2426 14.2574C25.3679 15.3826 26 16.9087 26 18.5V23.75ZM17.75 26.75H22.25V28.25H17.75V26.75Z" fill="#3366FF"/>
</g>
<path d="M25.5 18C27.433 18 29 16.433 29 14.5C29 12.567 27.433 11 25.5 11C23.567 11 22 12.567 22 14.5C22 16.433 23.567 18 25.5 18Z" fill="#EB5757"/>
<defs>
<clipPath id="clip0_1701_2808">
<rect width="18" height="18" fill="white" transform="translate(11 11)"/>
</clipPath>
</defs>
</svg>
