<svg width="30" height="30" viewBox="0 0 30 30" fill="none" xmlns="http://www.w3.org/2000/svg">
<rect x="0.5" y="0.5" width="29" height="29" rx="5.5" fill="#EBF0FF"/>
<rect x="0.5" y="0.5" width="29" height="29" rx="5.5" stroke="#3366FF"/>
<g clip-path="url(#clip0_1740_832)">
<path d="M15 7.5C19.1423 7.5 22.5 10.8578 22.5 15C22.5 19.1423 19.1423 22.5 15 22.5C10.8578 22.5 7.5 19.1423 7.5 15C7.5 10.8578 10.8578 7.5 15 7.5ZM15 9C13.4087 9 11.8826 9.63214 10.7574 10.7574C9.63214 11.8826 9 13.4087 9 15C9 16.5913 9.63214 18.1174 10.7574 19.2426C11.8826 20.3679 13.4087 21 15 21C16.5913 21 18.1174 20.3679 19.2426 19.2426C20.3679 18.1174 21 16.5913 21 15C21 13.4087 20.3679 11.8826 19.2426 10.7574C18.1174 9.63214 16.5913 9 15 9ZM15 11.25C15.7894 11.2503 16.5586 11.4997 17.198 11.9628C17.8374 12.4258 18.3144 13.0788 18.561 13.8287C18.8075 14.5787 18.8112 15.3873 18.5713 16.1394C18.3314 16.8915 17.8603 17.5488 17.2251 18.0175C16.5898 18.4862 15.8229 18.7425 15.0335 18.7498C14.2441 18.7572 13.4725 18.5152 12.8286 18.0584C12.1848 17.6016 11.7015 16.9533 11.4477 16.2057C11.1939 15.4582 11.1824 14.6497 11.415 13.8953C11.5904 14.2873 11.8952 14.6072 12.2783 14.8014C12.6614 14.9956 13.0995 15.0523 13.5195 14.9621C13.9394 14.8719 14.3156 14.6402 14.5851 14.3057C14.8546 13.9713 15.0011 13.5545 15 13.125C15.0001 12.7639 14.8959 12.4104 14.6999 12.107C14.5039 11.8037 14.2245 11.5634 13.8953 11.415C14.2448 11.3077 14.6153 11.25 15 11.25Z" fill="#668CFF"/>
</g>
<defs>
<clipPath id="clip0_1740_832">
<rect width="18" height="18" fill="white" transform="translate(6 6)"/>
</clipPath>
</defs>
</svg>
