<svg width="125" height="59" viewBox="0 0 125 59" fill="none" xmlns="http://www.w3.org/2000/svg">
<path d="M125 57.5H0V58.5H125V57.5Z" fill="#E5E5E5"/>
<rect x="16.5" y="14.5" width="86" height="29" rx="5.5" fill="#EBF0FF"/>
<rect x="16.5" y="14.5" width="86" height="29" rx="5.5" stroke="#3366FF"/>
<g clip-path="url(#clip0_630_22114)">
<path d="M38 22.3335C41.682 22.3335 44.6667 25.3182 44.6667 29.0002C44.6667 32.6822 41.682 35.6668 38 35.6668C34.318 35.6668 31.3334 32.6822 31.3334 29.0002C31.3334 25.3182 34.318 22.3335 38 22.3335ZM38 23.6668C36.5856 23.6668 35.229 24.2287 34.2288 25.2289C33.2286 26.2291 32.6667 27.5857 32.6667 29.0002C32.6667 30.4147 33.2286 31.7712 34.2288 32.7714C35.229 33.7716 36.5856 34.3335 38 34.3335C39.4145 34.3335 40.7711 33.7716 41.7713 32.7714C42.7715 31.7712 43.3334 30.4147 43.3334 29.0002C43.3334 27.5857 42.7715 26.2291 41.7713 25.2289C40.7711 24.2287 39.4145 23.6668 38 23.6668ZM38 25.6668C38.7018 25.6671 39.3855 25.8888 39.9539 26.3004C40.5222 26.712 40.9462 27.2924 41.1653 27.959C41.3845 28.6256 41.3877 29.3444 41.1745 30.013C40.9613 30.6815 40.5425 31.2657 39.9779 31.6824C39.4132 32.099 38.7315 32.3268 38.0298 32.3334C37.3281 32.3399 36.6423 32.1248 36.0699 31.7188C35.4976 31.3127 35.0681 30.7364 34.8424 30.0719C34.6168 29.4075 34.6066 28.6887 34.8134 28.0182C34.9693 28.3666 35.2402 28.651 35.5807 28.8236C35.9213 28.9962 36.3107 29.0467 36.684 28.9665C37.0573 28.8863 37.3917 28.6803 37.6312 28.3831C37.8708 28.0858 38.001 27.7153 38 27.3335C38.0001 27.0125 37.9075 26.6983 37.7333 26.4286C37.5591 26.159 37.3107 25.9454 37.018 25.8135C37.3287 25.7182 37.658 25.6668 38 25.6668Z" fill="#668CFF"/>
</g>
<path d="M58.298 34L53.986 24.2H55.498L59.46 33.244H58.592L62.582 24.2H63.982L59.684 34H58.298ZM65.0357 34V26.58H66.3797V34H65.0357ZM65.7077 25.152C65.4464 25.152 65.2271 25.068 65.0497 24.9C64.8817 24.732 64.7977 24.5267 64.7977 24.284C64.7977 24.032 64.8817 23.822 65.0497 23.654C65.2271 23.486 65.4464 23.402 65.7077 23.402C65.9691 23.402 66.1837 23.486 66.3517 23.654C66.5291 23.8127 66.6177 24.0133 66.6177 24.256C66.6177 24.508 66.5337 24.7227 66.3657 24.9C66.1977 25.068 65.9784 25.152 65.7077 25.152ZM72.2499 34.084C71.4565 34.084 70.7565 33.9207 70.1499 33.594C69.5525 33.2673 69.0859 32.8193 68.7499 32.25C68.4232 31.6807 68.2599 31.0273 68.2599 30.29C68.2599 29.5527 68.4185 28.8993 68.7359 28.33C69.0625 27.7607 69.5059 27.3173 70.0659 27C70.6352 26.6733 71.2745 26.51 71.9839 26.51C72.7025 26.51 73.3372 26.6687 73.8879 26.986C74.4385 27.3033 74.8679 27.7513 75.1759 28.33C75.4932 28.8993 75.6519 29.5667 75.6519 30.332C75.6519 30.388 75.6472 30.4533 75.6379 30.528C75.6379 30.6027 75.6332 30.6727 75.6239 30.738H69.3099V29.772H74.9239L74.3779 30.108C74.3872 29.632 74.2892 29.2073 74.0839 28.834C73.8785 28.4607 73.5939 28.1713 73.2299 27.966C72.8752 27.7513 72.4599 27.644 71.9839 27.644C71.5172 27.644 71.1019 27.7513 70.7379 27.966C70.3739 28.1713 70.0892 28.4653 69.8839 28.848C69.6785 29.2213 69.5759 29.6507 69.5759 30.136V30.36C69.5759 30.8547 69.6879 31.298 69.9119 31.69C70.1452 32.0727 70.4672 32.3713 70.8779 32.586C71.2885 32.8007 71.7599 32.908 72.2919 32.908C72.7305 32.908 73.1272 32.8333 73.4819 32.684C73.8459 32.5347 74.1632 32.3107 74.4339 32.012L75.1759 32.88C74.8399 33.272 74.4199 33.5707 73.9159 33.776C73.4212 33.9813 72.8659 34.084 72.2499 34.084ZM78.9494 34L76.1914 26.58H77.4654L79.9154 33.3H79.3134L81.8614 26.58H82.9954L85.4874 33.3H84.8994L87.4054 26.58H88.6094L85.8374 34H84.5494L82.2114 27.868H82.6034L80.2374 34H78.9494Z" fill="#668CFF"/>
<defs>
<clipPath id="clip0_630_22114">
<rect width="16" height="16" fill="white" transform="translate(30 21)"/>
</clipPath>
</defs>
</svg>
